<svg width="64" height="64" xmlns="http://www.w3.org/2000/svg">
  <g>
    <path stroke="null" id="svg_2" fill-rule="evenodd" d="m31.9419,0c-17.63863,0 -31.9419,14.68061 -31.9419,32.79212c0,14.48804 9.15232,26.77983 21.84392,31.116c1.59623,0.30355 2.18234,-0.71146 2.18234,-1.57761c0,-0.78134 -0.02969,-3.36503 -0.04333,-6.10511c-8.88619,1.98367 -10.7613,-3.86914 -10.7613,-3.86914c-1.45304,-3.78972 -3.54662,-4.7981 -3.54662,-4.7981c-2.89814,-2.03524 0.21846,-1.99337 0.21846,-1.99337c3.20746,0.2312 4.89635,3.37965 4.89635,3.37965c2.84896,5.01268 7.47243,3.56344 9.29521,2.72545c0.28728,-2.11882 1.11448,-3.56606 2.02805,-4.38496c-7.09488,-0.8286 -14.55292,-3.64087 -14.55292,-16.20604c0,-3.5796 1.24778,-6.50486 3.29112,-8.80131c-0.33166,-0.8266 -1.425,-4.16176 0.30992,-8.67848c0,0 2.68238,-0.88093 8.78573,3.36179c2.54803,-0.72654 5.28049,-1.09104 7.99511,-1.10397c2.71447,0.01231 5.44917,0.37728 8.00186,1.10397c6.0966,-4.24273 8.77523,-3.36179 8.77523,-3.36179c1.73867,4.51672 0.64533,7.85188 0.31367,8.67848c2.04814,2.29646 3.28678,5.22171 3.28678,8.80131c0,12.59549 -7.47243,15.3682 -14.58515,16.18002c1.14582,1.01762 2.16659,3.0133 2.16659,6.07263c0,4.38773 -0.03643,7.919 -0.03643,8.99896c0,0.87324 0.57441,1.89578 2.19358,1.57376c12.68515,-4.34093 21.82578,-16.62857 21.82578,-31.11199c0,-18.11182 -14.30102,-32.79228 -31.9419,-32.79228"/>
    <path stroke="null" id="svg_3" d="m11.60075,46.72289c-0.07348,0.16773 -0.33377,0.21801 -0.57077,0.1026c-0.24232,-0.10987 -0.37723,-0.338 -0.29906,-0.50589c0.07191,-0.17185 0.33205,-0.21975 0.57374,-0.10481c0.24153,0.10987 0.37926,0.34021 0.29609,0.50811m1.34915,1.52163c-0.15883,0.14892 -0.46994,0.07968 -0.68005,-0.15556c-0.2184,-0.23477 -0.25873,-0.54937 -0.09755,-0.69987c0.16384,-0.14892 0.46493,-0.0792 0.68271,0.15556c0.2184,0.23761 0.26092,0.54937 0.09489,0.69987m1.31304,1.93946c-0.20401,0.14386 -0.53825,0.00949 -0.74461,-0.28994c-0.20401,-0.30006 -0.20401,-0.65924 0.00469,-0.8031c0.20636,-0.14386 0.5356,-0.01423 0.74461,0.28267c0.20355,0.30448 0.20355,0.66367 -0.00469,0.81038m1.79877,1.87417c-0.18244,0.20346 -0.57124,0.14892 -0.85592,-0.12884c-0.29109,-0.2716 -0.37207,-0.65703 -0.18963,-0.86065c0.18525,-0.20394 0.57624,-0.14671 0.86296,0.12884c0.28922,0.27113 0.37676,0.65924 0.1826,0.86065m2.48194,1.08798c-0.08129,0.26401 -0.45493,0.38321 -0.83232,0.27113c-0.37676,-0.11541 -0.62314,-0.42368 -0.54716,-0.69038c0.07848,-0.26607 0.45462,-0.39049 0.8345,-0.27049c0.37614,0.11493 0.6233,0.42163 0.54498,0.68991m2.72566,0.20157c0.00938,0.27777 -0.31048,0.50811 -0.70647,0.51301c-0.39818,0.00949 -0.72069,-0.21579 -0.72523,-0.48913c0,-0.28045 0.31329,-0.50795 0.71085,-0.51538c0.39599,-0.0079 0.72085,0.21595 0.72085,0.49151m2.53619,-0.43633c0.04737,0.27034 -0.22778,0.54873 -0.62095,0.62288c-0.38661,0.07193 -0.74461,-0.09596 -0.7937,-0.36408c-0.04799,-0.27777 0.23169,-0.55601 0.6183,-0.62794c0.3938,-0.06909 0.74618,0.09375 0.79636,0.36914"/>
  </g>
</svg>